<svg height="512" viewBox="0 0 100 100" width="512" xmlns="http://www.w3.org/2000/svg" xmlns:xlink="http://www.w3.org/1999/xlink"><clipPath id="b"><path id="a" d="m50 0c27.615 0 50 22.386 50 50 0 27.615-22.385 50.002-50 50.002-27.614 0-50-22.387-50-50.002s22.386-50 50-50z"/></clipPath><path d="m50 0c27.615 0 50 22.386 50 50 0 27.615-22.385 50.002-50 50.002-27.614 0-50-22.387-50-50.002s22.386-50 50-50z" fill="#3db39e"/><g clip-path="url(#b)"><path d="m13.999 37.011 1.996-.033 37.005 22.023-.014 25.006-38.987-22.643z" fill="#d7b354"/><path d="m120.998 25.994-2.031-.015-65.967 33.022-.014 25.002 68.012-33.109z" fill="#e3bd5a"/><path d="m121 26-39.34-23-67.66 34 39 23.001z" fill="#f1ca65"/><path d="m90.938 14.962c1.365-.682 2.049-1.576 2.049-2.47h.013v-3.989h-14v3.958c-.016.904.664 1.811 2.045 2.5 2.732 1.366 7.16 1.366 9.893.001zm-16 8c1.365-.682 2.049-1.576 2.049-2.47h.013v-3.989h-14v3.958c-.016.904.664 1.811 2.045 2.501 2.732 1.365 7.16 1.365 9.893 0zm5.062 4.541v3.958c-.016.904.664 1.811 2.045 2.5 2.732 1.365 7.16 1.365 9.893 0 1.361-.68 2.043-1.57 2.047-2.462h.015v-3.997h-14zm-21.062 3.459c1.365-.682 2.049-1.576 2.049-2.47h.013v-3.989h-14v3.958c-.016.904.664 1.811 2.045 2.501 2.732 1.365 7.16 1.365 9.893 0zm6.062 7.499c-.016.904.664 1.811 2.045 2.501 2.732 1.364 7.16 1.364 9.893 0 1.365-.682 2.049-1.576 2.049-2.47h.013v-3.989h-14zm-34-2c-.016.904.664 1.811 2.045 2.501 2.732 1.364 7.16 1.364 9.893 0 1.365-.682 2.049-1.576 2.049-2.47h.013v-3.989h-14zm17 10c-.016.904.664 1.811 2.045 2.501 2.732 1.365 7.16 1.365 9.893 0 1.365-.683 2.049-1.576 2.049-2.47h.013v-3.989h-14z" fill="#ceaa4b"/><path d="m74.938 18.973c2.73-1.364 2.73-3.576 0-4.941-2.732-1.364-7.16-1.364-9.893 0-2.73 1.365-2.73 3.577 0 4.941 2.732 1.364 7.16 1.364 9.893 0zm17 6.06c-2.732-1.364-7.16-1.364-9.893 0-2.73 1.364-2.73 3.576 0 4.94 2.732 1.365 7.16 1.365 9.893 0 2.73-1.364 2.73-3.576 0-4.94zm-33 1.94c2.73-1.365 2.73-3.576 0-4.941-2.732-1.364-7.16-1.364-9.893 0-2.73 1.365-2.73 3.576 0 4.941 2.732 1.364 7.16 1.364 9.893 0zm18 5.059c-2.732-1.364-7.16-1.364-9.893 0-2.73 1.365-2.73 3.577 0 4.941 2.732 1.364 7.16 1.364 9.893 0 2.73-1.364 2.73-3.576 0-4.941zm-34-1.999c-2.732-1.364-7.16-1.364-9.893 0-2.73 1.364-2.73 3.576 0 4.94 2.732 1.365 7.16 1.365 9.893 0 2.73-1.364 2.73-3.576 0-4.94zm17 10c-2.732-1.364-7.16-1.364-9.893 0-2.73 1.364-2.73 3.576 0 4.94 2.732 1.364 7.16 1.364 9.893 0 2.73-1.364 2.73-3.576 0-4.94zm31-29.06c2.73-1.364 2.73-3.576 0-4.94-2.732-1.364-7.16-1.364-9.893 0-2.73 1.364-2.73 3.576 0 4.94 2.732 1.364 7.16 1.364 9.893 0z" fill="#fad880"/></g></svg>