<?xml version="1.0" encoding="iso-8859-1"?>
<!-- Generator: Adobe Illustrator 19.0.0, SVG Export Plug-In . SVG Version: 6.00 Build 0)  -->
<svg version="1.1" id="Capa_1" xmlns="http://www.w3.org/2000/svg" xmlns:xlink="http://www.w3.org/1999/xlink" x="0px" y="0px"
	 viewBox="0 0 512 512" style="enable-background:new 0 0 512 512;" xml:space="preserve">
<circle style="fill:#3E4959;" cx="256" cy="256" r="256"/>
<rect x="217.659" y="189.077" style="fill:#F2F2F2;" width="107.771" height="215.569"/>
<rect x="325.434" y="189.077" style="fill:#D9D8D7;" width="53.886" height="215.569"/>
<polygon style="fill:#CCCBCA;" points="325.434,189.087 352.375,134.303 379.316,189.087 "/>
<polygon style="fill:#FFFFFF;" points="352.375,134.303 244.604,134.303 217.659,189.087 325.434,189.087 "/>
<rect x="217.659" y="260.393" style="fill:#21D8DE;" width="107.771" height="72.968"/>
<rect x="325.434" y="260.393" style="fill:#06B2B8;" width="53.886" height="72.968"/>
<g>
	<rect x="234.727" y="279.816" style="fill:#FFFFFF;" width="73.642" height="11.829"/>
	<rect x="234.727" y="302.113" style="fill:#FFFFFF;" width="37.918" height="11.829"/>
</g>
<rect x="244.604" y="107.355" style="fill:#21D8DE;" width="107.771" height="26.948"/>
<path style="fill:#F15424;" d="M211.704,276.236c-15.023-4.413-28.646-2.081-39.635,5.018c-0.017,0-0.023,0.007-0.023,0.013
	c-0.258,0.168-0.522,0.337-0.78,0.515c-1.335,0.793-2.907,1.252-4.572,1.252c-1.671,0-3.237-0.459-4.572-1.252
	c-0.264-0.185-0.519-0.347-0.78-0.515c-0.003-0.007-0.007-0.013-0.013-0.013c-11-7.092-24.626-9.427-39.639-5.018
	c-33.898,9.959-43.236,44.944-28.494,78.168c17.593,39.655,48.24,54.44,65.919,49.228c1.741-0.505,3.468-1.245,5.186-2.22
	c0.069-0.043,0.149-0.079,0.218-0.122c0.651-0.344,1.387-0.532,2.17-0.532c0.783,0,1.513,0.192,2.164,0.532
	c0.076,0.043,0.155,0.079,0.225,0.122c1.718,0.974,3.449,1.714,5.186,2.22c17.679,5.212,48.326-9.573,65.916-49.228
	C254.93,321.179,245.588,286.195,211.704,276.236z"/>
<path style="fill:#FFFFFF;" d="M235.837,304.534c-4.876-10.531-13.903-17.993-26.109-21.577c-4.42-1.301-8.793-1.965-13.008-1.965
	c-7.128,0-13.794,1.86-19.836,5.51l-1.024,0.634l-1.734,1.12h-0.112c-2.246,1.163-4.76,1.771-7.32,1.771v103.721
	c1.899,0,3.785,0.469,5.526,1.397l0.327,0.175c1.222,0.697,2.468,1.229,3.71,1.592c1.619,0.479,3.439,0.723,5.404,0.723
	c0,0,0,0,0.003,0c15.261,0,38.08-14.419,52.122-46.077C241.195,334.861,241.945,317.724,235.837,304.534z"/>
<g>
	<path style="fill:#FF9D57;" d="M108.24,351.027c-1.259,0-2.464-0.737-3.006-1.959c-2.276-5.127-3.888-10.352-4.793-15.532
		c-0.311-1.787,0.885-3.498,2.679-3.805c1.787-0.311,3.492,0.882,3.802,2.676c0.816,4.658,2.269,9.368,4.331,13.996
		c0.737,1.661-0.013,3.607-1.675,4.337C109.142,350.928,108.689,351.027,108.24,351.027z"/>
	<path style="fill:#FF9D57;" d="M103.057,323.911c-0.096,0-0.188-0.007-0.287-0.013c-1.804-0.155-3.151-1.747-3.003-3.561
		c0.4-4.813,1.536-9.262,3.363-13.206c3.577-7.73,9.659-13.375,18.059-16.78c1.691-0.697,3.607,0.116,4.291,1.8
		c0.69,1.685-0.122,3.614-1.807,4.288c-6.815,2.771-11.71,7.29-14.567,13.454c-1.503,3.237-2.434,6.95-2.771,10.993
		C106.185,322.606,104.749,323.911,103.057,323.911z"/>
</g>
<g>
	<path style="fill:#16C6CC;" d="M161.967,272.988c-0.595-0.495-1.265-1.064-1.995-1.685c-0.36-0.311-0.747-0.621-1.123-0.968
		c-0.37-0.347-0.76-0.717-1.156-1.087c-0.4-0.37-0.806-0.756-1.219-1.146c-0.416-0.396-0.806-0.829-1.219-1.255
		c-0.813-0.862-1.681-1.721-2.471-2.682c-0.799-0.948-1.655-1.863-2.401-2.877c-0.756-1.011-1.562-1.956-2.246-2.999
		c-0.35-0.505-0.704-1.021-1.044-1.516c-0.347-0.492-0.684-0.981-0.974-1.48c-0.608-1.001-1.192-1.916-1.747-2.864
		c-0.502-0.941-0.981-1.833-1.427-2.659c-0.218-0.41-0.426-0.803-0.624-1.176c-0.201-0.367-0.347-0.74-0.509-1.077
		c-0.311-0.687-0.585-1.285-0.806-1.777c-0.446-0.981-0.704-1.543-0.704-1.543s0.327,0.522,0.898,1.437
		c0.281,0.466,0.624,1.021,1.024,1.658c0.205,0.32,0.4,0.667,0.641,1.014c0.244,0.34,0.502,0.7,0.77,1.07
		c0.532,0.747,1.11,1.556,1.721,2.408c0.624,0.803,1.354,1.685,2.074,2.583c0.353,0.459,0.743,0.892,1.136,1.321
		c0.393,0.429,0.783,0.869,1.186,1.308c0.763,0.895,1.675,1.724,2.52,2.59c0.836,0.875,1.774,1.652,2.646,2.448
		c0.865,0.823,1.8,1.526,2.676,2.24c0.443,0.347,0.859,0.71,1.301,1.034c0.439,0.317,0.872,0.621,1.292,0.928
		c0.413,0.297,0.819,0.595,1.209,0.879c0.39,0.287,0.799,0.522,1.169,0.773c0.756,0.482,1.443,0.925,2.055,1.321
		c0.621,0.353,1.169,0.671,1.615,0.922c-0.492-10.356-3.703-20.715-9.877-29.973c-6.762-10.141-16.11-17.527-26.594-21.854
		c-8.235,11.568-8.962,27.48-0.614,39.995c7.663,11.502,20.923,17.031,33.769,15.406
		C162.628,273.494,162.314,273.253,161.967,272.988z"/>
	<path style="fill:#16C6CC;" d="M192.311,251.845c-5.807-0.334-11.723,1.718-16.156,6.147c-4.433,4.433-6.491,10.359-6.151,16.163
		c5.8,0.337,11.72-1.721,16.153-6.154C190.593,263.568,192.644,257.652,192.311,251.845z"/>
</g>
<g>
	<path style="fill:#242D3C;" d="M194.084,341.894c0-2.828-2.299-5.133-5.13-5.133c-1.179,0-2.243,0.433-3.128,1.064
		c-5.705,4.063-5.705,4.063-5.705,4.063s0,0,5.705,4.07c0.889,0.624,1.949,1.057,3.128,1.057
		C191.785,347.027,194.084,344.728,194.084,341.894z"/>
	<path style="fill:#242D3C;" d="M180.482,318.566c-2.679-0.922-5.596,0.509-6.521,3.188c-0.386,1.113-0.324,2.259-0.01,3.303
		c1.992,6.709,1.992,6.709,1.992,6.709s0,0,5.698-4.063c0.892-0.631,1.638-1.5,2.028-2.613
		C184.581,322.408,183.161,319.498,180.482,318.566z"/>
	<path style="fill:#242D3C;" d="M180.482,365.215c-2.679,0.922-5.596-0.499-6.521-3.181c-0.386-1.116-0.324-2.259-0.01-3.297
		c1.992-6.715,1.992-6.715,1.992-6.715s0,0,5.698,4.06c0.892,0.634,1.638,1.503,2.028,2.613
		C184.581,361.373,183.161,364.293,180.482,365.215z"/>
</g>
<g>
</g>
<g>
</g>
<g>
</g>
<g>
</g>
<g>
</g>
<g>
</g>
<g>
</g>
<g>
</g>
<g>
</g>
<g>
</g>
<g>
</g>
<g>
</g>
<g>
</g>
<g>
</g>
<g>
</g>
</svg>
